Coordinates
version=1
nRows=30
nColumns=23
inDegrees=yes

Units are S.I. units (second, meters, Newtons, ...)
If the header above contains a line with 'inDegrees', this indicates whether rotational values are in degrees (yes) or radians (no).

endheader
time	pelvis_tilt	pelvis_list	pelvis_rotation	pelvis_tx	pelvis_ty	pelvis_tz	hip_flexion_r	hip_adduction_r	hip_rotation_r	knee_angle_r	knee_angle_r_beta	ankle_angle_r	subtalar_angle_r	mtp_angle_r	hip_flexion_l	hip_adduction_l	hip_rotation_l	knee_angle_l	knee_angle_l_beta	ankle_angle_l	subtalar_angle_l	mtp_angle_l
      7.50000000	     -8.14801413	      0.31953650	      1.27297678	      2.21396984	      1.04436089	      1.02062530	     36.69731627	     -1.40080580	      4.16598221	     64.50090054	      1.12575308	      6.56500681	    -17.58739014	      0.00000000	      4.35060784	     -0.01421642	    -14.43171569	     29.88533541	      0.52159750	     16.49386857	     11.92135158	      0.00000000
      7.50666667	     -7.97699252	     -0.49609758	      1.43911811	      2.21571194	      1.05006955	      1.02030271	     36.15261459	     -0.86386234	      2.99305130	     60.96835232	      1.06409849	      6.74892240	    -17.12361007	      0.00000000	      2.74020864	     -1.00826978	    -14.96746231	     28.67995644	      0.50055967	     13.95087609	     12.65958837	      0.00000000
      7.51333333	     -7.93461140	     -1.00239003	      1.58907290	      2.21740998	      1.05540063	      1.02003156	     35.72649976	     -0.64465797	      1.87390639	     57.43939120	      1.00250650	      7.06011545	    -16.24429223	      0.00000000	      1.28252458	     -1.56813119	    -15.21762866	     27.37947480	      0.47786198	     11.14901831	     12.83861546	      0.00000000
      7.52000000	     -7.71758296	     -1.63276152	      1.80685062	      2.21927192	      1.06089595	      1.01978398	     34.95082368	     -0.31534951	      0.57447851	     53.68167445	      0.93692197	      7.29394756	    -15.15323224	      0.00000000	     -0.26087750	     -2.33208601	    -15.52194680	     26.23190019	      0.45783303	      8.35804749	     13.18439643	      0.00000000
      7.52666667	     -7.45770012	     -2.18055458	      2.08613309	      2.22120687	      1.06620452	      1.01952120	     34.04468139	     -0.08855985	     -0.84226667	     49.85390218	      0.87011474	      7.59488299	    -13.60654243	      0.00000000	     -1.77115638	     -3.01711898	    -15.71098332	     25.16957976	      0.43929204	      5.53409114	     13.41193480	      0.00000000
      7.53333333	     -7.08895565	     -2.69744446	      2.42956542	      2.22323584	      1.07140430	      1.01930513	     32.93288084	      0.10821553	     -2.40327455	     45.95719573	      0.80210438	      7.94288470	    -11.58826674	      0.00000000	     -3.30997644	     -3.70679527	    -15.83386037	     24.22067983	      0.42273061	      2.75568202	     13.64378086	      0.00000000
      7.54000000	     -6.64420609	     -3.19471595	      2.80055816	      2.22536702	      1.07637344	      1.01920533	     31.65199549	      0.34593746	     -4.02358413	     41.99969343	      0.73303294	      8.26706084	     -9.14057526	      0.00000000	     -4.82550390	     -4.44233636	    -16.01466578	     23.45164936	      0.40930850	      0.07707477	     13.86054374	      0.00000000
      7.54666667	     -6.05898013	     -3.72038981	      3.23123652	      2.22756593	      1.08120590	      1.01920829	     30.13606790	      0.69721411	     -5.69383100	     37.97986257	      0.66287365	      8.59781995	     -6.46434794	      0.00000000	     -6.37857150	     -5.27441088	    -16.18158858	     22.87096017	      0.39917356	     -2.47335424	     14.07553727	      0.00000000
      7.55333333	     -5.50899464	     -4.21022024	      3.66432039	      2.22970663	      1.08551618	      1.01944705	     28.62564212	      1.15032205	     -7.22483124	     33.98200783	      0.59309792	      8.80753523	     -3.68712804	      0.00000000	     -7.73954900	     -6.14103197	    -16.39000531	     22.57943005	      0.39408540	     -4.74864955	     14.15574857	      0.00000000
      7.56000000	     -5.18898847	     -4.46966298	      3.98941246	      2.23164155	      1.08887852	      1.02000328	     27.46919767	      1.46624203	     -8.57305404	     30.31870952	      0.52916131	      9.16599452	     -0.53677046	      0.00000000	     -8.70621483	     -6.82143032	    -16.77342916	     22.63001395	      0.39496825	     -6.78158212	     14.18389482	      0.00000000
      7.56666667	     -4.91766331	     -4.67658288	      4.21786687	      2.23339610	      1.09167399	      1.02087470	     26.37555438	      1.90275633	     -9.54458920	     26.77583719	      0.46732652	      9.42399112	      2.36399178	      0.00000000	     -9.48971276	     -7.48991737	    -17.27577827	     22.97474235	      0.40098490	     -8.55307810	     13.99361734	      0.00000000
      7.57333333	     -4.69868395	     -4.87282272	      4.41077863	      2.23504808	      1.09384892	      1.02191695	     25.36167497	      2.43547620	    -10.17858551	     23.40821779	      0.40855047	      9.64510475	      4.88444893	      0.00000000	    -10.07760946	     -8.20924593	    -17.88052592	     23.64542438	      0.41269051	     -9.98143295	     13.56227712	      0.00000000
      7.58000000	     -5.15259193	     -4.74015151	      4.25280761	      2.23601892	      1.09443584	      1.02360516	     25.30105093	      2.75558337	    -10.07830045	     20.64038048	      0.36024260	      9.88511088	      6.87450374	      0.00000000	     -9.78646834	     -8.53891523	    -18.62727230	     24.76152431	      0.43217013	    -11.12798524	     12.58779740	      0.00000000
      7.58666667	     -4.49295248	     -5.20878701	      4.65003068	      2.23776489	      1.09621417	      1.02430076	     23.66336716	      3.62908887	    -10.50800548	     17.31481709	      0.30220057	      9.87379560	      8.66143049	      0.00000000	    -10.59950267	     -9.70673735	    -19.21588095	     25.91360195	      0.45227768	    -11.87355232	     11.77402186	      0.00000000
      7.59333333	     -4.26292086	     -5.46881840	      4.72444295	      2.23902152	      1.09678143	      1.02551078	     22.62087581	      4.41070960	    -10.17295801	     14.43155061	      0.25187807	      9.83905182	      9.54374945	      0.00000000	    -10.89392919	    -10.57352637	    -19.84455883	     27.30456601	      0.47655458	    -12.40713103	     10.31522705	      0.00000000
      7.60000000	     -4.03213296	     -5.71651324	      4.81998167	      2.24013227	      1.09680709	      1.02655763	     21.60842160	      5.13634733	     -9.73058202	     11.84638090	      0.20675835	      9.73974819	      9.93043177	      0.00000000	    -11.09410374	    -11.42686718	    -20.30498411	     28.87796620	      0.50401559	    -12.63643497	      8.48331009	      0.00000000
      7.60666667	     -4.11939003	     -5.81687317	      4.70785316	      2.24081908	      1.09576824	      1.02791889	     21.29245478	      5.59571502	     -9.64445533	     10.25974074	      0.17906626	      9.98158055	     10.62755018	      0.00000000	    -10.86133897	    -12.07432772	    -20.69696819	     30.71012337	      0.53599277	    -12.55847995	      6.44168415	      0.00000000
      7.61333333	     -3.34035923	     -6.20239950	      4.96308519	      2.24202294	      1.09564437	      1.02844139	     19.60490445	      6.43962479	     -9.11839271	      7.98961636	      0.13944511	      9.65444815	      9.84605656	      0.00000000	    -11.57317353	    -13.02290994	    -20.63889880	     32.29605904	      0.56367257	    -12.38602239	      3.98358527	      0.00000000
      7.62000000	     -2.95465422	     -6.43586853	      4.94067739	      2.24265607	      1.09437900	      1.02940498	     18.77029766	      7.01964358	     -9.05509470	      6.85933552	      0.11971799	      9.69041487	      9.46934390	      0.00000000	    -11.75832256	    -13.75130555	    -20.58299282	     34.18188716	      0.59658648	    -12.00476102	      1.55400931	      0.00000000
      7.62666667	     -2.56071199	     -6.67354738	      4.84644679	      2.24308705	      1.09262556	      1.03041797	     18.22480719	      7.51921820	     -9.40553218	      6.59557338	      0.11511447	      9.98061512	      9.36746886	      0.00000000	    -11.87995898	    -14.47433400	    -20.47346236	     36.21284508	      0.63203338	    -11.34268651	     -0.67805996	      0.00000000
      7.63333333	     -1.95101034	     -6.91334393	      4.89381639	      2.24343882	      1.09087331	      1.03106612	     17.44311276	      7.96695465	     -9.96831896	      6.54971574	      0.11431410	     10.07860605	      9.10189470	      0.00000000	    -12.14059304	    -15.11049858	    -19.87401046	     38.21014556	      0.66689285	    -10.80495537	     -3.21923518	      0.00000000
      7.64000000	     -1.23963470	     -7.19979687	      4.82599767	      2.24357295	      1.08878459	      1.03179360	     16.68182394	      8.45971611	    -10.49161487	      6.98859337	      0.12197396	     10.18852647	      8.74153752	      0.00000000	    -12.45995222	    -15.75394815	    -19.29098839	     40.31482237	      0.70362639	    -10.20098280	     -5.55190452	      0.00000000
      7.64666667	     -0.43628027	     -7.49286528	      4.62511265	      2.24346763	      1.08639206	      1.03262099	     15.91428051	      8.95544668	    -10.86640874	      7.82747519	      0.13661521	     10.18517492	      8.24506239	      0.00000000	    -12.84528932	    -16.37997171	    -18.82399419	     42.51518735	      0.74203000	     -9.46450413	     -7.48594548	      0.00000000
      7.65333333	      0.41805364	     -7.81816422	      4.48267897	      2.24322136	      1.08369993	      1.03321262	     15.12804834	      9.42686459	    -11.27364720	      8.92003151	      0.15568392	      9.98269171	      7.69323874	      0.00000000	    -13.17213963	    -16.99814304	    -18.16099978	     44.80351649	      0.78196888	     -8.77485707	     -9.39161588	      0.00000000
      7.66000000	      1.22197439	     -8.17201459	      4.50870906	      2.24268491	      1.08060944	      1.03349878	     14.47382230	      9.83188923	    -11.80632290	     10.29621202	      0.17970280	      9.73430835	      7.12757677	      0.00000000	    -13.23519011	    -17.58492762	    -17.05596837	     47.21426311	      0.82404435	     -8.33437135	    -11.44645188	      0.00000000
      7.66666667	      2.20582547	     -8.51650825	      4.23025919	      2.24193780	      1.07738727	      1.03412984	     13.63001430	     10.30968666	    -11.87823112	     11.85409148	      0.20689293	      9.08789870	      6.53630089	      0.00000000	    -13.59267647	    -18.12490479	    -16.42596291	     49.60966979	      0.86585208	     -7.66934503	    -12.88757812	      0.00000000
      7.67333333	      2.52513283	     -8.68502650	      4.06187468	      2.24064883	      1.07301746	      1.03450295	     13.78440096	     10.36846666	    -12.39422623	     14.12339776	      0.24649979	      8.94444718	      5.98896166	      0.00000000	    -12.89718008	    -18.36846010	    -15.19331890	     52.30176748	      0.91283805	     -7.31994315	    -14.85928153	      0.00000000
      7.68000000	      3.59491676	     -9.17912275	      3.91454798	      2.23955072	      1.06932595	      1.03483242	     12.87284121	     10.95611612	    -12.36375348	     15.90552303	      0.27760375	      8.41373745	      5.12785287	      0.00000000	    -13.12329748	    -19.07893747	    -14.46080031	     54.83786573	      0.95710131	     -6.75920087	    -16.00718906	      0.00000000
      7.68666667	      3.94427122	     -9.59263602	      3.77961693	      2.23789508	      1.06464074	      1.03515459	     12.86390311	     11.39962482	    -12.11092658	     17.97945086	      0.31380062	      8.11826090	      3.65182432	      0.00000000	    -12.27540881	    -19.58454162	    -13.27243072	     57.63522711	      1.00592448	     -6.27827656	    -17.22406718	      0.00000000
      7.69333333	      4.49653185	    -10.05742231	      3.57808707	      2.23610661	      1.06009843	      1.03550483	     12.65759855	     11.90894148	    -11.85552174	     20.19291445	      0.35243284	      8.23624874	      2.54805362	      0.00000000	    -11.66650826	    -20.15232571	    -12.30228077	     60.34911649	      1.05329078	     -5.76324260	    -18.14974124	      0.00000000
